<?xml version="1.0" encoding="UTF-8"?>
<!DOCTYPE svg PUBLIC "-//W3C//DTD SVG 1.1//EN" "http://www.w3.org/Graphics/SVG/1.1/DTD/svg11.dtd">
<!-- Creator: CorelDRAW 2019 (64-Bit) -->
<svg xmlns="http://www.w3.org/2000/svg" xml:space="preserve" width="67.4686mm" height="66.1458mm" version="1.1" style="shape-rendering:geometricPrecision; text-rendering:geometricPrecision; image-rendering:optimizeQuality; fill-rule:evenodd; clip-rule:evenodd"
viewBox="0 0 67.4686 66.1458"
 xmlns:xlink="http://www.w3.org/1999/xlink"
 xmlns:xodm="http://www.corel.com/coreldraw/odm/2003">
 <defs>
  <style type="text/css">
   <![CDATA[
    .fil0 {fill:white}
   ]]>
  </style>
 </defs>
 <g id="__x0023_Layer_x0020_1">
  <metadata id="CorelCorpID_0Corel-Layer"/>
  <g id="_1685850896352">
   <path class="fil0" d="M42.513 61.7178l-0.9184 0c-0.0925,0 -0.181,0.0373 -0.2478,0.1022l-0.1653 0.1652 -0.0177 -0.0177 0.1693 -0.1692c0.0648,-0.0648 0.1022,-0.1533 0.1022,-0.2457l0 -4.7106c0,-0.0924 -0.0374,-0.1829 -0.1022,-0.2478l-0.1693 -0.1691 0.0177 -0.0177 0.1673 0.1671c0.0648,0.0649 0.1533,0.1023 0.2458,0.1023l0.9184 0c1.3828,0 2.3819,0.8969 2.3819,2.5194 0,1.6246 -0.9991,2.5216 -2.3819,2.5216zm-8.2211 -6.4709l0 0 0 5.161c0,0.8358 -0.5764,1.4849 -1.4909,1.4849 -0.8319,0 -1.4888,-0.5645 -1.4888,-1.4987l0 -5.1472 -1.6482 0 0 5.0272c0,1.7938 1.3138,3.0486 3.139,3.0486 1.8231,0 3.137,-1.2548 3.137,-3.0486l0 -5.0272 -1.6481 0zm-5.227 0l0 0 -6.0458 0 0 1.4299 2.1989 0 0 6.4708 1.6481 0 0 -6.4708 2.1988 0 0 -1.4299zm-9.6089 4.8502l0 0 0.9441 -2.964c0.0392,-0.1396 0.0589,-0.2832 0.0589,-0.4288l0 -0.2438 0.0256 0 0 0.2438c0,0.1456 0.0197,0.2892 0.059,0.4288l0.9459 2.964 -2.0335 0zm-0.1495 -4.8502l0 0 2.3307 0 2.5193 7.9007 -1.709 0 -0.5705 -1.6207 -2.8104 0 -0.5685 1.6207 -1.711 0 2.5194 -7.9007zm-1.3719 0l0 0 -6.0459 0 0 1.4299 2.1989 0 0 6.4708 1.6481 0 0 -6.4708 2.1989 0 0 -1.4299zm-6.1907 5.6605l0 0c0,-1.481 -1.2568,-2.0809 -2.8637,-2.4959 -1.2548,-0.3225 -1.66,-0.6057 -1.66,-1.125 0,-0.4642 0.3482,-0.8437 1.2686,-0.8437 0.8635,0 1.3138,0.4622 1.3138,1.1998l1.6483 0c0,-1.4005 -0.8891,-2.5707 -2.9621,-2.5707 -2.0926,0 -2.9167,1.0326 -2.9167,2.1969 0,1.2921 0.8241,2.0356 2.6315,2.4604 1.3946,0.3325 1.8921,0.5744 1.8921,1.249 0,0.5763 -0.5389,0.9736 -1.4554,0.9736 -0.9932,0 -1.6187,-0.5429 -1.6187,-1.3827l-1.6482 0c0,1.5774 1.0641,2.7536 3.3141,2.7536 2.2303,0 3.0564,-1.1801 3.0564,-2.4153zm44.0022 -1.7112l0 0c0,-1.6579 0.8516,-2.6944 2.1045,-2.6944 1.2527,0 2.1044,1.0365 2.1044,2.6944 0,1.6581 -0.8517,2.6966 -2.1044,2.6966 -1.2529,0 -2.1045,-1.0385 -2.1045,-2.6966zm5.9377 0l0 0c0,-2.5489 -1.6482,-4.1263 -3.8332,-4.1263 -2.1852,0 -3.8334,1.5774 -3.8334,4.1263 0,2.549 1.6482,4.1265 3.8334,4.1265 2.185,0 3.8332,-1.5775 3.8332,-4.1265zm-9.9138 -3.9493l0 0 0 5.161c0,0.8358 -0.5763,1.4849 -1.4909,1.4849 -0.832,0 -1.4889,-0.5645 -1.4889,-1.4987l0 -5.1472 -1.6481 0 0 5.0272c0,1.7938 1.3138,3.0486 3.1389,3.0486 1.8233,0 3.1372,-1.2548 3.1372,-3.0486l0 -5.0272 -1.6482 0zm-8.9777 0l0 0 -3.0053 0 0 7.9007 3.0053 0c2.138,0 3.7508,-1.4338 3.7508,-3.9514 0,-2.5155 -1.6128,-3.9493 -3.7508,-3.9493z"/>
   <path class="fil0" d="M61.7919 63.6799c0,0.5557 0.4445,0.9717 0.9742,0.9717 0.5272,0 0.9691,-0.416 0.9691,-0.9717 0,-0.5452 -0.4419,-0.9612 -0.9691,-0.9612 -0.5297,0 -0.9742,0.416 -0.9742,0.9612zm0.1757 0l0 0c0,-0.4625 0.3463,-0.8191 0.7985,-0.8191 0.4471,0 0.7934,0.3566 0.7934,0.8191 0,0.473 -0.3463,0.8296 -0.7934,0.8296 -0.4522,0 -0.7985,-0.3566 -0.7985,-0.8296zm0.4212 0.5686l0 0 0 -1.1293 0.4367 0c0.2688,0 0.3954,0.1059 0.3954,0.323 0,0.2042 -0.1292,0.2894 -0.2971,0.3075l0.323 0.4988 -0.1887 0 -0.3075 -0.4859 -0.186 0 0 0.4859 -0.1758 0zm0.1758 -0.9872l0 0 0.2325 0c0.119,0 0.2481,0.0233 0.2481,0.1731 0,0.1784 -0.1421,0.1861 -0.2971,0.1861l-0.1835 0 0 -0.3592z"/>
  </g>
 </g>
 <g id="Capa_x0020_1">
  <metadata id="CorelCorpID_1Corel-Layer"/>
  <path class="fil0" d="M33.628 17.8573c0,3.4126 2.7665,6.1791 6.1791,6.1791l6.0131 0c-6.7488,0.0889 -12.1922,5.5873 -12.1922,12.3572 0,-6.7699 -5.4435,-12.2683 -12.1922,-12.3572l6.013 0c3.4127,0 6.1792,-2.7665 6.1792,-6.1791 0,-3.4126 -2.7665,-6.1791 -6.1792,-6.1791l6.1792 0 6.1791 0c-3.4126,0 -6.1791,2.7665 -6.1791,6.1791zm2.0944 -15.7883c10.8485,1.0215 19.4121,9.8955 19.9457,20.8789 -0.9955,0.6863 -2.2021,1.0885 -3.5027,1.0885l-6.0132 0c3.6436,0.048 6.906,1.6732 9.1374,4.2235 -1.9677,10.1499 -10.89,17.8179 -21.6093,17.8429 -0.0344,-0.2638 -0.0523,-0.5328 -0.0523,-0.806 0,0.2732 -0.018,0.5422 -0.0523,0.806 -10.7193,-0.025 -19.6417,-7.6929 -21.6093,-17.843 2.2314,-2.5502 5.4938,-4.1754 9.1373,-4.2234l-6.0131 0c-1.3006,0 -2.5072,-0.4022 -3.5027,-1.0885 0.5336,-10.9834 9.0972,-19.8573 19.9456,-20.8789 1.3225,1.9676 2.0945,4.3361 2.0945,6.8851 0,-2.549 0.7719,-4.9175 2.0944,-6.8851zm-2.0944 43.2278c0,-3.4126 -2.7665,-6.1791 -6.1792,-6.1791l6.1792 0 6.1791 0c-3.4126,0 -6.1791,2.7665 -6.1791,6.1791z"/>
 </g>
</svg>
